<svg width="13" height="16" viewBox="0 0 13 16" fill="none" xmlns="http://www.w3.org/2000/svg">
<path fill-rule="evenodd" clip-rule="evenodd" d="M13 6.5C13 8.11496 12.411 9.59235 11.4362 10.7291L11.4497 10.7427L7.20711 14.9853C6.81658 15.3758 6.18342 15.3758 5.79289 14.9853L2.25736 11.4498L2.27091 11.4362C0.880761 10.2441 0 8.47491 0 6.5C0 2.91015 2.91015 0 6.5 0C10.0899 0 13 2.91015 13 6.5ZM6.5 11C8.98528 11 11 8.98528 11 6.5C11 4.01471 8.98528 2 6.5 2C4.01472 2 2 4.01471 2 6.5C2 8.98528 4.01472 11 6.5 11Z" fill="#57585A"/>
</svg>
